<?xml version="1.0" encoding="UTF-8" standalone="no" ?>
<!DOCTYPE svg PUBLIC "-//W3C//DTD SVG 1.1//EN" "http://www.w3.org/Graphics/SVG/1.1/DTD/svg11.dtd">
<svg xmlns="http://www.w3.org/2000/svg" xmlns:xlink="http://www.w3.org/1999/xlink" version="1.1" width="1024" height="250" viewBox="-18.67 -276.67 1024 250" xml:space="preserve">
<desc>Created with Fabric.js 5.2.4</desc>
<defs>
</defs>
<g transform="matrix(0 0 0 0 0 0)" id="278b421f-6367-4a61-94e0-455dd30df5c2"  >
</g>
<g transform="matrix(1 0 0 1 512 125)" id="65bad07b-3fcb-4f3c-81ee-6b6b5b582af6"  >
<rect style="stroke: none; stroke-width: 1; stroke-dasharray: none; stroke-linecap: butt; stroke-dashoffset: 0; stroke-linejoin: miter; stroke-miterlimit: 4; fill: rgb(255,255,255); fill-rule: nonzero; opacity: 1; visibility: hidden;" vector-effect="non-scaling-stroke"  x="-512" y="-125" rx="0" ry="0" width="1024" height="250" />
</g>
<g transform="matrix(0.91 0 0 0.91 496.56 -157.44)"  >
<g style="" vector-effect="non-scaling-stroke"   >
		<g transform="matrix(0.13 0 0 -0.13 -868.02 -162.32)"  >
<path style="stroke: none; stroke-width: 1; stroke-dasharray: none; stroke-linecap: butt; stroke-dashoffset: 0; stroke-linejoin: miter; stroke-miterlimit: 4; fill: rgb(255,0,0); fill-rule: nonzero; opacity: 1;" vector-effect="non-scaling-stroke"  transform=" translate(-963.35, -3159)" d="M 715 3448 C 708 3431 786 3242 812 3214 C 822 3202 861 3181 899 3166 C 992 3130 1038 3082 1093 2966 C 1129 2890 1143 2870 1164 2864 C 1209 2853 1218 2863 1209 2912 C 1196 2982 1096 3267 1074 3297 C 1044 3339 971 3384 879 3419 C 777 3458 722 3468 715 3448 z" stroke-linecap="round" />
</g>
		<g transform="matrix(0.13 0 0 -0.13 -232.35 -38.24)"  >
<path style="stroke: none; stroke-width: 1; stroke-dasharray: none; stroke-linecap: butt; stroke-dashoffset: 0; stroke-linejoin: miter; stroke-miterlimit: 4; fill: rgb(255,0,0); fill-rule: nonzero; opacity: 1;" vector-effect="non-scaling-stroke"  transform=" translate(-5852.5, -2211.6)" d="M 7370 2955 L 7370 2730 L 4055 2730 L 740 2730 L 740 2645 L 740 2560 L 2200 2560 L 3660 2560 L 3660 2455 C 3660 2397 3658 2350 3655 2350 C 3652 2350 3631 2359 3609 2371 C 3559 2396 3438 2420 3362 2420 C 3280 2420 3188 2395 3106 2352 C 2952 2272 2794 2065 2774 1918 C 2749 1736 2910 1497 3151 1358 C 3254 1299 3331 1273 3446 1258 C 3557 1244 3632 1259 3756 1319 C 3872 1377 3952 1452 3975 1528 L 3981 1550 L 3838 1550 L 3694 1550 L 3664 1519 C 3598 1449 3487 1410 3350 1410 C 3105 1410 2971 1543 3001 1756 C 3019 1886 3119 2050 3231 2134 C 3350 2223 3448 2255 3589 2248 C 3660 2245 3684 2239 3728 2215 C 3812 2169 3858 2095 3875 1978 L 3881 1940 L 3970 1940 C 4020 1940 4060 1942 4060 1945 C 4060 1971 3993 2078 3943 2131 L 3880 2197 L 3880 2379 L 3880 2560 L 4440 2560 L 5000 2560 L 5000 2452 L 5000 2343 L 4878 2337 C 4609 2323 4402 2249 4342 2145 C 4323 2112 4320 2094 4323 2043 C 4326 1971 4340 1952 4418 1908 C 4446 1891 4470 1875 4470 1872 C 4470 1868 4446 1852 4416 1837 C 4279 1765 4225 1696 4226 1597 C 4227 1522 4261 1471 4350 1413 C 4593 1252 4987 1206 5290 1302 C 5326 1313 5388 1338 5428 1357 L 5500 1392 L 5500 1569 L 5499 1745 L 5478 1715 C 5431 1651 5312 1536 5248 1494 C 5101 1396 4959 1356 4780 1362 C 4684 1366 4656 1370 4610 1391 C 4536 1425 4490 1478 4490 1529 C 4490 1637 4614 1704 4835 1716 C 4890 1718 4959 1723 4988 1726 L 5040 1731 L 5040 1790 L 5040 1848 L 4863 1852 C 4724 1855 4676 1860 4645 1874 C 4586 1899 4570 1918 4570 1961 C 4570 2037 4666 2103 4822 2137 C 4920 2157 5117 2150 5217 2121 C 5257 2109 5292 2100 5295 2100 C 5298 2100 5300 2138 5300 2184 C 5300 2275 5304 2269 5228 2294 C 5212 2299 5210 2314 5210 2430 L 5210 2560 L 6290 2560 L 7369 2560 L 7372 2028 L 7375 1495 L 7405 1442 C 7444 1370 7504 1312 7570 1281 C 7617 1259 7639 1255 7720 1255 C 7836 1255 7904 1274 7990 1331 C 8057 1377 8122 1452 8169 1540 L 8199 1596 L 8065 1673 C 7991 1715 7929 1750 7927 1750 C 7925 1750 7920 1707 7916 1655 C 7902 1456 7834 1340 7730 1340 C 7688 1340 7666 1353 7641 1394 C 7620 1427 7620 1437 7620 1994 L 7620 2560 L 8750 2560 L 9880 2560 L 9880 2387 L 9880 2214 L 9850 2185 C 9825 2161 9820 2149 9820 2108 C 9820 2082 9822 2060 9824 2060 C 9827 2060 9882 2080 9947 2104 C 10090 2158 10158 2176 10270 2189 C 10451 2212 10517 2199 10595 2128 C 10650 2078 10650 2078 10650 2019 C 10650 1987 10648 1960 10646 1960 C 10644 1960 10623 1971 10599 1985 C 10467 2058 10213 2058 10035 1983 C 9905 1928 9775 1818 9724 1719 C 9688 1648 9685 1558 9717 1488 C 9766 1380 9907 1284 10053 1260 C 10148 1243 10315 1253 10408 1280 C 10448 1291 10517 1318 10561 1340 L 10640 1380 L 10646 1353 C 10651 1329 10664 1320 10743 1288 C 10794 1267 10843 1248 10853 1244 C 10869 1238 10870 1258 10870 1566 C 10870 2048 10851 2188 10776 2276 C 10735 2324 10657 2364 10572 2380 C 10488 2397 10271 2387 10160 2361 C 10113 2351 10072 2344 10068 2347 C 10063 2349 10060 2398 10060 2455 L 10060 2560 L 10513 2562 L 10965 2565 L 10965 2645 L 10965 2725 L 9293 2728 L 7621 2730 L 7618 2872 L 7615 3014 L 7497 3097 C 7432 3143 7377 3180 7375 3180 C 7372 3180 7370 3079 7370 2955 z M 10410 1836 C 10553 1805 10650 1751 10650 1701 C 10650 1654 10489 1536 10347 1478 C 10243 1436 10150 1418 10025 1416 C 9903 1415 9857 1426 9815 1468 C 9781 1501 9785 1540 9829 1603 C 9955 1786 10194 1882 10410 1836 z" stroke-linecap="round" />
</g>
		<g transform="matrix(0.13 0 0 -0.13 728.85 -7.93)"  >
<path style="stroke: none; stroke-width: 1; stroke-dasharray: none; stroke-linecap: butt; stroke-dashoffset: 0; stroke-linejoin: miter; stroke-miterlimit: 4; fill: rgb(255,0,0); fill-rule: nonzero; opacity: 1;" vector-effect="non-scaling-stroke"  transform=" translate(-12965, -1990)" d="M 11710 2645 L 11710 2560 L 11870 2560 L 12030 2560 L 12030 2451 L 12030 2343 L 11973 2307 C 11941 2288 11904 2259 11890 2244 L 11865 2217 L 11910 2224 C 12147 2261 12297 2247 12439 2176 C 12505 2142 12566 2081 12593 2021 C 12620 1962 12621 1856 12596 1782 C 12552 1652 12401 1520 12208 1444 C 12141 1418 11972 1380 11922 1380 C 11895 1380 11889 1374 11866 1324 C 11852 1293 11840 1264 11840 1259 C 11840 1254 12055 1250 12331 1250 L 12821 1250 L 12879 1373 C 12911 1440 12933 1496 12929 1498 C 12925 1500 12904 1493 12883 1482 C 12796 1439 12627 1410 12455 1410 L 12366 1410 L 12425 1447 C 12685 1608 12836 1783 12855 1946 C 12874 2115 12803 2269 12673 2337 C 12587 2383 12510 2400 12363 2407 L 12230 2413 L 12230 2486 L 12230 2560 L 12805 2560 L 13380 2560 L 13380 2460 C 13380 2362 13380 2360 13353 2346 C 13337 2337 13303 2310 13275 2285 L 13225 2239 L 13260 2244 C 13279 2247 13322 2254 13355 2259 C 13436 2274 13574 2273 13624 2258 C 13648 2251 13685 2226 13711 2200 C 13787 2127 13796 2046 13737 1959 L 13714 1925 L 13600 1925 L 13485 1925 L 13373 1847 C 13311 1804 13260 1768 13260 1767 C 13260 1766 13312 1764 13376 1762 C 13564 1758 13713 1719 13790 1653 C 13857 1595 13883 1520 13856 1456 C 13834 1404 13813 1397 13686 1402 C 13588 1405 13568 1409 13517 1433 C 13485 1449 13450 1475 13438 1491 C 13426 1507 13413 1520 13408 1520 C 13398 1520 13196 1361 13192 1350 C 13187 1337 13268 1294 13335 1274 C 13423 1247 13647 1250 13751 1278 C 13966 1336 14090 1455 14090 1604 C 14090 1714 14039 1782 13901 1854 L 13818 1897 L 13869 1929 C 13925 1965 13980 2022 14007 2072 C 14033 2120 14032 2234 14005 2280 C 13952 2370 13844 2414 13678 2415 L 13570 2415 L 13570 2488 L 13570 2560 L 13895 2560 L 14220 2560 L 14220 2645 L 14220 2730 L 12965 2730 L 11710 2730 L 11710 2645 z" stroke-linecap="round" />
</g>
		<g transform="matrix(0.13 0 0 -0.13 -859.35 16.63)"  >
<path style="stroke: none; stroke-width: 1; stroke-dasharray: none; stroke-linecap: butt; stroke-dashoffset: 0; stroke-linejoin: miter; stroke-miterlimit: 4; fill: rgb(255,0,0); fill-rule: nonzero; opacity: 1;" vector-effect="non-scaling-stroke"  transform=" translate(-1025, -1809.5)" d="M 910 1873 L 910 1345 L 948 1325 C 968 1313 1020 1285 1063 1261 L 1140 1219 L 1140 1809 L 1140 2400 L 1025 2400 L 910 2400 L 910 1873 z" stroke-linecap="round" />
</g>
		<g transform="matrix(0.13 0 0 -0.13 -728.49 18.57)"  >
<path style="stroke: none; stroke-width: 1; stroke-dasharray: none; stroke-linecap: butt; stroke-dashoffset: 0; stroke-linejoin: miter; stroke-miterlimit: 4; fill: rgb(255,0,0); fill-rule: nonzero; opacity: 1;" vector-effect="non-scaling-stroke"  transform=" translate(-2019.1, -1794.63)" d="M 2011 2390 C 1927 2377 1833 2335 1735 2264 C 1685 2229 1642 2200 1638 2200 C 1633 2200 1630 2234 1630 2275 L 1630 2350 L 1515 2350 L 1400 2350 L 1400 1836 L 1400 1322 L 1506 1266 C 1564 1235 1613 1210 1614 1210 C 1616 1210 1620 1326 1623 1468 C 1628 1760 1638 1819 1709 1960 C 1784 2111 1867 2201 1979 2254 C 2039 2282 2054 2285 2140 2285 C 2282 2285 2355 2247 2408 2145 C 2429 2103 2434 2078 2438 1987 C 2448 1765 2402 1661 2205 1452 C 2157 1401 2121 1355 2126 1351 C 2131 1347 2190 1309 2257 1267 L 2379 1191 L 2419 1237 C 2552 1388 2628 1566 2637 1751 C 2648 1961 2583 2130 2441 2263 C 2378 2322 2267 2376 2180 2390 C 2108 2401 2089 2401 2011 2390 z" stroke-linecap="round" />
</g>
		<g transform="matrix(0.13 0 0 -0.13 -149.96 67.33)"  >
<path style="stroke: none; stroke-width: 1; stroke-dasharray: none; stroke-linecap: butt; stroke-dashoffset: 0; stroke-linejoin: miter; stroke-miterlimit: 4; fill: rgb(255,0,0); fill-rule: nonzero; opacity: 1;" vector-effect="non-scaling-stroke"  transform=" translate(-6358.78, -1419.53)" d="M 6390 2391 C 6298 2363 6166 2266 6030 2129 C 5976 2074 5929 2030 5926 2030 C 5923 2030 5920 2102 5920 2190 L 5920 2350 L 5815 2350 L 5710 2350 L 5710 1448 L 5710 545 L 5814 492 C 5870 464 5920 440 5924 440 C 5927 440 5930 697 5930 1011 L 5930 1581 L 6018 1501 C 6134 1394 6210 1337 6295 1294 C 6419 1232 6517 1237 6670 1312 C 6786 1369 6901 1483 6953 1591 C 7002 1692 7018 1793 7001 1889 C 6964 2094 6771 2324 6588 2382 C 6527 2400 6435 2405 6390 2391 z M 6713 2197 C 6762 2176 6845 2080 6860 2026 C 6890 1918 6836 1786 6706 1656 C 6550 1498 6355 1442 6179 1504 C 6058 1546 5989 1610 5991 1677 C 5993 1789 6145 1967 6357 2107 C 6499 2200 6627 2233 6713 2197 z" stroke-linecap="round" />
</g>
		<g transform="matrix(0.13 0 0 -0.13 201.91 18.66)"  >
<path style="stroke: none; stroke-width: 1; stroke-dasharray: none; stroke-linecap: butt; stroke-dashoffset: 0; stroke-linejoin: miter; stroke-miterlimit: 4; fill: rgb(255,0,0); fill-rule: nonzero; opacity: 1;" vector-effect="non-scaling-stroke"  transform=" translate(-8995.24, -1794.24)" d="M 8977 2370 C 8898 2347 8792 2300 8750 2270 L 8720 2249 L 8720 2294 L 8720 2340 L 8585 2340 L 8450 2340 L 8450 1838 L 8450 1335 L 8580 1268 L 8710 1201 L 8710 1493 C 8710 1653 8715 1814 8720 1850 C 8737 1960 8799 2070 8899 2171 C 9041 2312 9163 2356 9267 2302 C 9323 2273 9344 2241 9335 2198 C 9319 2123 9238 2049 9134 2015 L 9070 1994 L 9166 1885 C 9219 1824 9268 1774 9275 1772 C 9295 1767 9407 1849 9455 1903 C 9541 2001 9561 2087 9520 2178 C 9493 2238 9411 2314 9332 2352 C 9271 2382 9256 2385 9155 2387 C 9069 2389 9030 2385 8977 2370 z" stroke-linecap="round" />
</g>
</g>
</g>
</svg>