<?xml version="1.0" standalone="no"?>
<!DOCTYPE svg PUBLIC "-//W3C//DTD SVG 20010904//EN"
 "http://www.w3.org/TR/2001/REC-SVG-20010904/DTD/svg10.dtd">
<svg version="1.0" xmlns="http://www.w3.org/2000/svg"
 width="1508.000000pt" height="420.000000pt" viewBox="0 0 1508.000000 420.000000"
 preserveAspectRatio="xMidYMid meet">

<g transform="translate(0.000000,420.000000) scale(0.100000,-0.100000)"
fill="#000000" stroke="none">
<path d="M715 3448 c-7 -17 71 -206 97 -234 10 -12 49 -33 87 -48 93 -36 139
-84 194 -200 36 -76 50 -96 71 -102 45 -11 54 -1 45 48 -13 70 -113 355 -135
385 -30 42 -103 87 -195 122 -102 39 -157 49 -164 29z"/>
<path d="M7370 2955 l0 -225 -3315 0 -3315 0 0 -85 0 -85 1460 0 1460 0 0
-105 c0 -58 -2 -105 -5 -105 -3 0 -24 9 -46 21 -50 25 -171 49 -247 49 -82 0
-174 -25 -256 -68 -154 -80 -312 -287 -332 -434 -25 -182 136 -421 377 -560
103 -59 180 -85 295 -100 111 -14 186 1 310 61 116 58 196 133 219 209 l6 22
-143 0 -144 0 -30 -31 c-66 -70 -177 -109 -314 -109 -245 0 -379 133 -349 346
18 130 118 294 230 378 119 89 217 121 358 114 71 -3 95 -9 139 -33 84 -46
130 -120 147 -237 l6 -38 89 0 c50 0 90 2 90 5 0 26 -67 133 -117 186 l-63 66
0 182 0 181 560 0 560 0 0 -108 0 -109 -122 -6 c-269 -14 -476 -88 -536 -192
-19 -33 -22 -51 -19 -102 3 -72 17 -91 95 -135 28 -17 52 -33 52 -36 0 -4 -24
-20 -54 -35 -137 -72 -191 -141 -190 -240 1 -75 35 -126 124 -184 243 -161
637 -207 940 -111 36 11 98 36 138 55 l72 35 0 177 -1 176 -21 -30 c-47 -64
-166 -179 -230 -221 -147 -98 -289 -138 -468 -132 -96 4 -124 8 -170 29 -74
34 -120 87 -120 138 0 108 124 175 345 187 55 2 124 7 153 10 l52 5 0 59 0 58
-177 4 c-139 3 -187 8 -218 22 -59 25 -75 44 -75 87 0 76 96 142 252 176 98
20 295 13 395 -16 40 -12 75 -21 78 -21 3 0 5 38 5 84 0 91 4 85 -72 110 -16
5 -18 20 -18 136 l0 130 1080 0 1079 0 3 -532 3 -533 30 -53 c39 -72 99 -130
165 -161 47 -22 69 -26 150 -26 116 0 184 19 270 76 67 46 132 121 179 209
l30 56 -134 77 c-74 42 -136 77 -138 77 -2 0 -7 -43 -11 -95 -14 -199 -82
-315 -186 -315 -42 0 -64 13 -89 54 -21 33 -21 43 -21 600 l0 566 1130 0 1130
0 0 -173 0 -173 -30 -29 c-25 -24 -30 -36 -30 -77 0 -26 2 -48 4 -48 3 0 58
20 123 44 143 54 211 72 323 85 181 23 247 10 325 -61 55 -50 55 -50 55 -109
0 -32 -2 -59 -4 -59 -2 0 -23 11 -47 25 -132 73 -386 73 -564 -2 -130 -55
-260 -165 -311 -264 -36 -71 -39 -161 -7 -231 49 -108 190 -204 336 -228 95
-17 262 -7 355 20 40 11 109 38 153 60 l79 40 6 -27 c5 -24 18 -33 97 -65 51
-21 100 -40 110 -44 16 -6 17 14 17 322 0 482 -19 622 -94 710 -41 48 -119 88
-204 104 -84 17 -301 7 -412 -19 -47 -10 -88 -17 -92 -14 -5 2 -8 51 -8 108
l0 105 453 2 452 3 0 80 0 80 -1672 3 -1672 2 -3 142 -3 142 -118 83 c-65 46
-120 83 -122 83 -3 0 -5 -101 -5 -225z m3040 -1119 c143 -31 240 -85 240 -135
0 -47 -161 -165 -303 -223 -104 -42 -197 -60 -322 -62 -122 -1 -168 10 -210
52 -34 33 -30 72 14 135 126 183 365 279 581 233z"/>
<path d="M11710 2645 l0 -85 160 0 160 0 0 -109 0 -108 -57 -36 c-32 -19 -69
-48 -83 -63 l-25 -27 45 7 c237 37 387 23 529 -48 66 -34 127 -95 154 -155 27
-59 28 -165 3 -239 -44 -130 -195 -262 -388 -338 -67 -26 -236 -64 -286 -64
-27 0 -33 -6 -56 -56 -14 -31 -26 -60 -26 -65 0 -5 215 -9 491 -9 l490 0 58
123 c32 67 54 123 50 125 -4 2 -25 -5 -46 -16 -87 -43 -256 -72 -428 -72 l-89
0 59 37 c260 161 411 336 430 499 19 169 -52 323 -182 391 -86 46 -163 63
-310 70 l-133 6 0 73 0 74 575 0 575 0 0 -100 c0 -98 0 -100 -27 -114 -16 -9
-50 -36 -78 -61 l-50 -46 35 5 c19 3 62 10 95 15 81 15 219 14 269 -1 24 -7
61 -32 87 -58 76 -73 85 -154 26 -241 l-23 -34 -114 0 -115 0 -112 -78 c-62
-43 -113 -79 -113 -80 0 -1 52 -3 116 -5 188 -4 337 -43 414 -109 67 -58 93
-133 66 -197 -22 -52 -43 -59 -170 -54 -98 3 -118 7 -169 31 -32 16 -67 42
-79 58 -12 16 -25 29 -30 29 -10 0 -212 -159 -216 -170 -5 -13 76 -56 143 -76
88 -27 312 -24 416 4 215 58 339 177 339 326 0 110 -51 178 -189 250 l-83 43
51 32 c56 36 111 93 138 143 26 48 25 162 -2 208 -53 90 -161 134 -327 135
l-108 0 0 73 0 72 325 0 325 0 0 85 0 85 -1255 0 -1255 0 0 -85z"/>
<path d="M910 1873 l0 -528 38 -20 c20 -12 72 -40 115 -64 l77 -42 0 590 0
591 -115 0 -115 0 0 -527z"/>
<path d="M2011 2390 c-84 -13 -178 -55 -276 -126 -50 -35 -93 -64 -97 -64 -5
0 -8 34 -8 75 l0 75 -115 0 -115 0 0 -514 0 -514 106 -56 c58 -31 107 -56 108
-56 2 0 6 116 9 258 5 292 15 351 86 492 75 151 158 241 270 294 60 28 75 31
161 31 142 0 215 -38 268 -140 21 -42 26 -67 30 -158 10 -222 -36 -326 -233
-535 -48 -51 -84 -97 -79 -101 5 -4 64 -42 131 -84 l122 -76 40 46 c133 151
209 329 218 514 11 210 -54 379 -196 512 -63 59 -174 113 -261 127 -72 11 -91
11 -169 0z"/>
<path d="M6390 2391 c-92 -28 -224 -125 -360 -262 -54 -55 -101 -99 -104 -99
-3 0 -6 72 -6 160 l0 160 -105 0 -105 0 0 -902 0 -903 104 -53 c56 -28 106
-52 110 -52 3 0 6 257 6 571 l0 570 88 -80 c116 -107 192 -164 277 -207 124
-62 222 -57 375 18 116 57 231 171 283 279 49 101 65 202 48 298 -37 205 -230
435 -413 493 -61 18 -153 23 -198 9z m323 -194 c49 -21 132 -117 147 -171 30
-108 -24 -240 -154 -370 -156 -158 -351 -214 -527 -152 -121 42 -190 106 -188
173 2 112 154 290 366 430 142 93 270 126 356 90z"/>
<path d="M8977 2370 c-79 -23 -185 -70 -227 -100 l-30 -21 0 45 0 46 -135 0
-135 0 0 -502 0 -503 130 -67 130 -67 0 292 c0 160 5 321 10 357 17 110 79
220 179 321 142 141 264 185 368 131 56 -29 77 -61 68 -104 -16 -75 -97 -149
-201 -183 l-64 -21 96 -109 c53 -61 102 -111 109 -113 20 -5 132 77 180 131
86 98 106 184 65 275 -27 60 -109 136 -188 174 -61 30 -76 33 -177 35 -86 2
-125 -2 -178 -17z"/>
</g>
</svg>
